<svg width="235" height="225" viewBox="0 0 235 225" fill="none" xmlns="http://www.w3.org/2000/svg">
<g clip-path="url(#clip0)">
<path d="M10.4739 197.03C9.32982 195.569 7.42297 194.474 5.89749 193.014C4.37201 191.554 3.2279 189.363 2.08379 187.537C1.32105 186.441 -0.585801 187.172 0.176939 188.268C1.70242 191.918 4.37201 198.491 8.94845 198.857C10.4739 199.221 11.2367 198.126 10.4739 197.03Z" fill="black"/>
<path d="M39.8394 213.461C37.5512 212.001 34.8816 211.636 32.212 210.906C29.1611 209.81 26.1101 208.715 23.8219 206.889C23.0592 206.525 22.2964 207.255 22.6778 207.985C26.4915 212.001 32.9748 216.383 39.0767 216.748C40.6022 216.382 40.9836 214.192 39.8394 213.461Z" fill="black"/>
<path d="M63.4838 198.49C61.5769 200.317 60.0515 202.507 57.7632 203.967C55.475 205.429 53.1868 205.794 50.5172 206.158C48.9917 206.524 49.7545 207.985 50.8986 208.35C57.3819 209.08 63.4838 206.158 66.1534 200.681C66.5347 198.856 64.6279 197.03 63.4838 198.49Z" fill="black"/>
<path d="M69.205 176.217C68.8236 175.852 68.0609 175.852 67.2981 176.217C65.7726 177.678 66.154 179.503 66.154 180.964C66.154 183.52 65.7726 185.71 64.6285 187.901C64.2471 189.362 66.154 190.092 66.9167 188.997C68.0609 186.806 68.8236 184.615 69.205 182.424C70.3491 180.598 71.1118 177.678 69.205 176.217Z" fill="black"/>
<path d="M61.1962 166.359C58.9079 165.263 57.0011 163.437 55.0942 161.977C53.1874 160.151 51.6619 158.325 49.3737 156.865C47.8482 156.134 46.3227 157.596 47.0855 159.056C48.611 161.247 50.8992 163.072 53.1874 164.899C55.0942 166.359 57.3825 167.819 59.6707 168.914C61.5769 169.644 63.103 167.454 61.1962 166.359Z" fill="black"/>
<path d="M34.8816 154.674C32.2121 154.674 29.9238 155.039 27.6356 156.134C25.7288 157.229 23.0592 159.42 23.0592 161.612C23.0592 162.708 24.5847 163.803 25.7288 163.072C27.2542 161.977 28.3984 160.516 29.5425 159.42C31.0679 158.325 32.9748 157.595 34.5003 157.595C36.7885 157.595 37.1692 155.039 34.8816 154.674Z" fill="black"/>
<path d="M34.8817 180.964C33.3562 178.773 33.3562 175.852 34.1189 173.661C34.5003 172.566 32.5934 171.835 32.2121 172.93C31.068 175.852 30.3052 178.408 31.068 181.329C31.8307 183.884 33.7375 187.536 36.4071 188.267C37.5512 188.632 38.6953 187.536 38.314 186.441C37.9326 184.25 36.0258 182.789 34.8817 180.964Z" fill="black"/>
<path d="M61.1962 194.474C59.6707 193.744 57.7639 194.109 55.857 193.378C53.5688 192.649 51.6619 191.188 49.7551 189.728C48.611 188.632 47.0855 190.092 48.2296 191.187C50.8992 194.109 56.6198 199.221 61.1962 197.761C62.721 197.03 62.721 194.839 61.1962 194.474Z" fill="black"/>
<path d="M97.0444 186.806C92.0865 189.727 87.1287 192.649 81.7896 194.474C80.2641 195.205 80.6454 197.395 82.5523 197.03C88.6542 195.569 95.5189 194.474 99.3326 188.997C100.477 187.901 98.5705 186.076 97.0444 186.806Z" fill="black"/>
<path d="M111.537 163.437C111.156 161.977 109.249 161.977 108.486 162.707C106.579 164.167 105.816 167.453 104.291 169.644C102.766 171.835 100.859 174.026 98.9518 176.217C97.8077 177.312 99.7146 179.138 100.859 178.043C103.528 175.852 105.816 173.661 108.105 171.471C110.012 169.28 112.299 166.359 111.537 163.437Z" fill="black"/>
<path d="M114.969 133.131C114.207 132.035 111.918 132.4 112.3 133.86C112.681 139.703 114.969 145.18 114.969 150.657C114.969 151.752 116.495 151.752 116.495 150.657C116.876 144.815 118.401 138.242 114.969 133.131Z" fill="black"/>
<path d="M108.867 119.985C107.723 117.794 106.579 115.603 104.672 113.778C102.766 111.587 100.859 108.666 98.1891 107.936C97.045 107.571 95.5195 108.666 96.2822 109.762C97.045 111.953 99.3332 113.413 100.859 114.873C102.766 116.699 105.054 118.89 106.579 121.081C107.723 122.542 109.63 121.446 108.867 119.985Z" fill="black"/>
<path d="M83.3157 98.8069C81.0274 96.6161 78.3579 95.5207 75.3069 94.4253C71.8746 93.695 67.2981 92.9647 64.2472 94.0601C62.3403 94.7904 62.3403 96.9812 64.2472 97.7115C69.9677 99.9024 76.451 96.9813 81.7902 100.998C82.9337 101.728 84.0784 99.9024 83.3157 98.8069Z" fill="black"/>
<path d="M59.6701 106.475C54.3309 110.857 45.178 120.715 51.2799 127.654C52.424 128.749 54.3309 128.018 54.7123 126.923C55.475 124.002 54.7123 121.08 55.475 118.525C56.6191 114.873 59.2887 111.587 61.5769 108.666C62.721 106.841 60.8148 105.38 59.6701 106.475Z" fill="black"/>
<path d="M69.5857 144.085C67.2975 142.259 65.0093 140.799 62.721 138.973C60.4328 136.782 58.9073 134.227 57.3819 131.67C57.0005 130.575 55.0936 131.306 55.475 132.401C57.0005 138.243 60.8142 147.007 68.4416 146.641C69.5857 146.64 70.7298 144.815 69.5857 144.085Z" fill="black"/>
<path d="M94.3754 153.213C89.7989 152.118 84.8411 152.848 81.0274 149.926C80.2647 149.196 79.1206 150.292 79.8833 151.023C83.697 155.038 89.4176 156.5 94.7568 155.404C95.5195 155.404 95.5195 153.579 94.3754 153.213Z" fill="black"/>
<path d="M128.317 158.691C123.36 155.769 115.35 156.5 109.63 157.229C108.105 157.229 108.105 159.42 109.63 159.786C112.681 160.151 116.113 160.151 119.164 160.881C121.834 161.246 124.504 162.341 127.173 162.341C129.461 161.977 129.842 159.42 128.317 158.691Z" fill="black"/>
<path d="M158.446 145.18C155.395 146.276 153.488 148.102 150.818 149.927C148.149 152.119 145.48 153.579 142.428 155.039C140.903 155.769 142.047 158.325 143.572 157.96C146.623 157.229 148.911 155.769 151.581 154.309C154.632 152.483 157.683 150.657 160.352 148.102C161.496 147.006 160.352 144.45 158.446 145.18Z" fill="black"/>
<path d="M174.463 118.16C174.082 116.699 171.793 116.699 171.412 118.16C170.268 122.175 169.124 125.828 166.454 129.114C165.692 130.209 166.836 131.304 167.98 130.574C171.793 127.288 175.225 123.637 174.463 118.16Z" fill="black"/>
<path d="M174.081 87.4882C172.937 86.0276 170.649 87.123 171.03 88.5836C172.555 93.3304 172.937 98.4424 173.318 103.189C173.318 104.65 175.988 104.65 175.988 103.189C176.751 98.0772 177.513 92.235 174.081 87.4882Z" fill="black"/>
<path d="M162.259 57.1815C161.115 55.7209 159.208 57.5466 159.971 59.0072C162.259 64.1192 165.692 68.866 168.361 73.978C168.743 75.0734 170.649 74.3431 170.268 73.2477C168.743 67.4054 166.454 61.5632 162.259 57.1815Z" fill="black"/>
<path d="M144.334 48.053C140.902 44.7667 134.419 40.0199 129.08 41.8456C127.555 42.2107 127.555 44.4016 129.08 44.7667C131.368 45.497 133.657 45.1319 135.945 45.8621C138.233 46.5924 140.521 48.053 142.428 49.8787C143.572 50.609 145.098 49.1478 144.334 48.053Z" fill="black"/>
<path d="M117.639 46.2267C114.207 46.2267 111.156 46.957 108.867 49.513C106.961 51.7038 103.91 56.4506 105.816 59.3717C106.579 60.8323 108.486 60.4672 109.63 59.3717C110.393 58.2763 110.393 57.546 110.393 56.4506C110.393 55.3552 110.774 53.8946 111.537 52.7992C112.681 50.6084 114.969 48.0524 117.639 47.6873C118.782 47.6878 118.782 46.2267 117.639 46.2267Z" fill="black"/>
<path d="M125.266 83.8368C123.36 81.2808 120.309 79.4551 118.401 77.2642C116.113 74.7083 114.588 71.7871 113.063 68.866C112.3 67.4054 110.012 68.5009 110.393 69.9614C111.918 75.8037 116.495 84.567 122.978 86.3927C124.504 86.7579 126.028 84.9322 125.266 83.8368Z" fill="black"/>
<path d="M156.157 100.268C153.106 98.8075 150.055 98.4424 146.623 97.347C142.046 96.2515 138.232 94.0607 134.8 91.1396C133.275 89.679 130.986 91.8698 132.512 93.3304C137.851 98.8075 147.385 103.554 155.394 103.554C156.919 103.554 157.683 100.998 156.157 100.268Z" fill="black"/>
<path d="M187.429 75.8036C185.522 77.6294 185.141 80.1853 184.378 82.3762C183.234 85.2973 181.709 88.5836 179.801 91.1395C178.276 92.6001 180.564 94.7909 182.09 93.3304C184.378 91.1395 186.284 88.5836 187.81 86.0276C189.337 83.4716 191.243 80.1853 190.861 77.2642C190.481 75.8036 188.573 74.7082 187.429 75.8036Z" fill="black"/>
<path d="M197.345 49.5135C192.387 53.5301 190.862 61.9283 191.243 67.7706C191.243 69.5963 193.913 69.5963 194.294 67.7706C194.675 65.2146 195.438 62.2935 196.201 59.7375C197.345 56.8164 199.634 54.2604 200.396 51.3392C200.396 49.5135 198.489 48.4175 197.345 49.5135Z" fill="black"/>
<path d="M212.6 30.1611C210.312 29.7959 208.405 31.6216 206.879 32.7171C204.972 34.1776 203.828 36.3685 203.065 38.1942C202.303 40.0199 204.973 41.4804 205.735 39.6547C206.879 38.1942 207.642 36.7336 209.167 35.273C210.693 34.1776 212.981 33.8125 213.744 31.9868C214.125 31.6216 213.744 30.5262 212.6 30.1611Z" fill="black"/>
<path d="M233.956 32.367C233.193 28.5523 232.049 24.3562 230.524 20.5415C230.143 19.3971 228.998 18.2527 227.854 18.2527C220.227 18.6341 213.362 20.9229 206.879 25.1191C204.591 26.645 206.498 30.0782 209.167 28.9338C214.506 25.8821 219.846 24.3562 225.566 24.3562C226.329 27.0265 227.092 29.6968 227.854 32.367C228.618 35.4188 228.236 38.4706 230.143 40.7594C231.287 42.2853 233.193 41.5223 233.956 40.3779C235.864 38.0891 234.719 34.6552 233.956 32.367Z" fill="black"/>
</g>
<defs>
<clipPath id="clip0">
<rect width="235" height="225" fill="white"/>
</clipPath>
</defs>
</svg>
